<?xml version="1.0" encoding="UTF-8"?>
<svg width="40px" height="40px" viewBox="0 0 40 40" version="1.1" xmlns="http://www.w3.org/2000/svg" xmlns:xlink="http://www.w3.org/1999/xlink">
    <!-- Generator: Sketch 58 (84663) - https://sketch.com -->
    <title>Coaches</title>
    <desc>Created with Sketch.</desc>
    <g id="Coaches" stroke="none" stroke-width="1" fill="none" fill-rule="evenodd">
        <g id="noun_Mentor_2511006-(1)" transform="translate(1.000000, 4.000000)" fill="#000000" fill-rule="nonzero" stroke="#000000" stroke-width="0.5">
            <path d="M9.02769886,0 C6.43962552,0 4.31818182,2.1385027 4.31818182,4.74915306 C4.31818182,7.35980386 6.43962552,9.49830612 9.02769886,9.49830612 C11.6157722,9.49830612 13.7372159,7.35980386 13.7372159,4.74915306 C13.7372159,2.1385027 11.6157722,0 9.02769886,0 Z M9.02769886,1.73683312 C10.6837622,1.73683312 12.0099432,3.07864395 12.0099432,4.74915306 C12.0099432,6.4196626 10.6837622,7.74790399 9.02769886,7.74790399 C7.37163555,7.74790399 6.04545455,6.4196626 6.04545455,4.74915306 C6.04545455,3.07864395 7.37163555,1.73683312 9.02769886,1.73683312 Z M28.9723011,4.12497866 C26.3842278,4.12497866 24.2627841,6.26348136 24.2627841,8.87413172 C24.2627841,11.4847825 26.3842278,13.6232848 28.9723011,13.6232848 C31.5603745,13.6232848 33.6818182,11.4847825 33.6818182,8.87413172 C33.6818182,6.26348136 31.5603745,4.12497866 28.9723011,4.12497866 Z M28.9723011,5.87538079 C30.6283645,5.87538079 31.9545455,7.20362261 31.9545455,8.87413172 C31.9545455,10.5446413 30.6283645,11.8864517 28.9723011,11.8864517 C27.3162378,11.8864517 25.9900568,10.5446413 25.9900568,8.87413172 C25.9900568,7.20362261 27.3162378,5.87538079 28.9723011,5.87538079 Z M9.02769886,11.6286405 C4.04906755,11.6286405 0,15.623325 0,20.5706173 L0,27.992865 C0,28.4724584 0.386682886,28.8613686 0.863636364,28.8613686 L28.0411932,28.8613686 C28.3526486,28.8657063 28.6423468,28.7011616 28.7993586,28.4306538 C28.9563704,28.160146 28.9563704,27.8255841 28.7993586,27.5550763 C28.6423468,27.2845685 28.3526486,27.1200238 28.0411932,27.1244485 L1.72727273,27.1244485 L1.72727273,20.5706173 C1.72727273,16.5711244 4.95952595,13.3654736 9.02769886,13.3654736 C13.0958722,13.3654736 16.328125,16.5711244 16.328125,20.5706173 L16.328125,24.885562 C16.3237247,25.1987413 16.4873636,25.490043 16.7563824,25.6479239 C17.0254012,25.8058048 17.3581215,25.8058048 17.6271403,25.6479239 C17.8961591,25.490043 18.0597981,25.1987413 18.0553977,24.885562 L18.0553977,20.5706173 C18.0553977,15.623325 14.0063306,11.6286405 9.02769886,11.6286405 Z M28.9723011,15.7536192 C23.9936741,15.7536192 19.9446023,19.7483036 19.9446023,24.6955959 C19.9402019,25.0087752 20.1038409,25.3000769 20.3728597,25.4579578 C20.6418785,25.6158386 20.9745988,25.6158386 21.2436176,25.4579578 C21.5126364,25.3000769 21.6762753,25.0087752 21.671875,24.6955959 C21.671875,20.6961039 24.9041334,17.4904523 28.9723011,17.4904523 C33.0404689,17.4904523 36.2727273,20.6961039 36.2727273,24.6955959 L36.2727273,31.2629961 L20.8082386,31.2629961 C20.4967833,31.2585714 20.207085,31.4231162 20.0500732,31.693624 C19.8930614,31.9641318 19.8930614,32.2986937 20.0500732,32.5692014 C20.207085,32.8397092 20.4967833,33.004254 20.8082386,32.9999163 L37.1363636,32.9999163 C37.6133171,32.9999163 38,32.6110061 38,32.1314127 L38,24.6955959 C38,19.7483036 33.9509281,15.7536192 28.9723011,15.7536192 Z" id="Shape"></path>
        </g>
    </g>
</svg>