<?xml version="1.0" encoding="UTF-8"?>
<svg width="40px" height="40px" viewBox="0 0 40 40" version="1.1" xmlns="http://www.w3.org/2000/svg" xmlns:xlink="http://www.w3.org/1999/xlink">
    <!-- Generator: Sketch 58 (84663) - https://sketch.com -->
    <title>Google_BG</title>
    <desc>Created with Sketch.</desc>
    <g id="Google_BG" stroke="none" stroke-width="1" fill="none" fill-rule="evenodd">
        <rect fill="#FFFFFF" x="0" y="0" width="40" height="40"></rect>
        <path d="M21.4203606,22.06303 L26.0605575,22.06303 C25.2460569,24.4865688 23.0400935,26.2241771 20.4575039,26.2041231 C17.323877,26.1797717 14.7327969,23.5415046 14.6111436,20.2459558 C14.4807405,16.7133735 17.1736413,13.7957139 20.5017709,13.7957139 C22.0235071,13.7957139 23.412183,14.40593 24.4591017,15.4058358 C24.7070749,15.6427328 25.0845438,15.6442335 25.3284338,15.4026299 L27.0327472,13.7144746 C27.2992569,13.4504296 27.3002291,13.0045339 27.0344972,12.7396022 C25.3741915,11.0841881 23.1469696,10.0523595 20.6908942,10.0018833 C15.4523469,9.8942463 11.0367259,14.4145246 11.0002364,19.9287062 C10.9634228,25.4842918 15.2315302,30 20.5017709,30 C25.5700553,30 29.7104171,25.8235054 29.9877504,20.5624551 C29.9951391,20.496495 30,18.2672895 30,18.2672895 L21.4203606,18.2672895 C21.0686872,18.2672895 20.7836411,18.5672817 20.7836411,18.9373949 L20.7836411,21.3929246 C20.7836411,21.7630378 21.068752,22.06303 21.4203606,22.06303 Z" id="Path" fill="#4F439A" fill-rule="nonzero"></path>
    </g>
</svg>