<svg enable-background="new 0 0 50 50" height="50" viewBox="0 0 50 50" width="50" xmlns="http://www.w3.org/2000/svg"><g fill="none" stroke="#ffffff" stroke-linecap="round" stroke-linejoin="round" stroke-width="3.5" transform="translate(1 1)"><path d="m34.63 24c0-5.883-4.748-10.646-10.63-10.646s-10.644 4.763-10.644 10.646c0 5.885 4.762 10.662 10.644 10.662s10.63-4.777 10.63-10.662z"/><path d="m48.5 24c0-13.541-10.963-24.505-24.5-24.505-13.522 0-24.5 10.964-24.5 24.505 0 13.542 10.978 24.505 24.5 24.505 13.537 0 24.5-10.963 24.5-24.505z"/><path d="m24 35.188v5.313"/><path d="m24 7.515v5.313"/><path d="m13.355 24h-5.052"/><path d="m39.697 24h-5.067"/></g></svg>