<?xml version="1.0" encoding="UTF-8"?>
<svg width="40px" height="40px" viewBox="0 0 40 40" version="1.1" xmlns="http://www.w3.org/2000/svg" xmlns:xlink="http://www.w3.org/1999/xlink">
    <!-- Generator: Sketch 58 (84663) - https://sketch.com -->
    <title>Message + Notification</title>
    <desc>Created with Sketch.</desc>
    <g id="Message-+-Notification" stroke="none" stroke-width="1" fill="none" fill-rule="evenodd">
        <g id="Group-2" transform="translate(2.000000, 3.000000)" fill="#000000" fill-rule="nonzero" stroke="#000000" stroke-width="0.727955525">
            <g id="Group-3">
                <path d="M19.5243983,2.06914056 L3.49530957,2.06941839 C2.51093713,2.06941839 1.71294559,2.86740992 1.71294559,3.85178236 L1.71294559,33.4390244 C1.71294559,33.4849041 1.73117123,33.5289047 1.76361307,33.5613465 C1.83116972,33.6289032 1.94070068,33.6289032 2.00825732,33.5613465 L6.32917827,29.2404256 C7.06454606,28.5050578 8.06191881,28.0919325 9.10188591,28.0919325 L32.7260788,28.0919325 C33.7104512,28.0919325 34.5084428,27.2939409 34.5084428,26.3095685 L34.5086486,23.6261221 C34.994705,23.5031998 35.4707862,23.3511333 35.9353247,23.1716643 L35.934334,26.3095685 C35.934334,28.0814389 34.4979492,29.5178236 32.7260788,29.5178236 L9.10188591,29.5178236 C8.44008867,29.5178236 7.80539692,29.7807216 7.3374356,30.2486829 L3.01651465,34.5696038 C2.39211286,35.1940056 1.37975754,35.1940056 0.75535575,34.5696038 C0.455507437,34.2697555 0.287054409,33.8630739 0.287054409,33.4390244 L0.287054409,3.85178236 C0.287054409,2.07991197 1.72343917,0.643527205 3.49530957,0.643527205 L20.2874385,0.643284465 C20.0103947,1.10129459 19.7554807,1.57721027 19.5243983,2.06914056 Z" id="Combined-Shape"></path>
            </g>
            <g id="Group-5" transform="translate(14.000000, 1.000000)">
                <g id="home-copy-3" transform="translate(0.583579, 0.000000)">
                    <g id="Group">
                        <g id="Shape">
                            <path d="M14.4300965,20.6224689 C14.3230904,22.5766518 12.7045892,24.1282886 10.7236838,24.1282886 C8.74277846,24.1282886 7.12427728,22.5766518 7.01727108,20.6224689 L2.47877671,20.6224689 C1.10986816,20.6224689 -7.81597009e-14,19.5151028 -7.81597009e-14,18.1477726 C-7.81597009e-14,16.7822963 1.10893779,15.6730763 2.47555701,15.6730763 C2.47395167,15.6730763 2.47469627,10.7233742 2.47469627,10.7233742 C2.47469627,7.23708099 4.65484032,4.18046584 7.83653817,2.99388008 L7.83653817,2.88518791 C7.83653817,1.29222267 9.13099281,-1.77635684e-14 10.7236838,-1.77635684e-14 C12.3180834,-1.77635684e-14 13.6108295,1.29144503 13.6108295,2.88518791 L13.6108295,2.99394883 C16.7924488,4.18069256 18.9726714,7.23781527 18.9726714,10.7233742 L18.9726714,15.6723573 C20.3363908,15.6730763 21.4473676,16.7818659 21.4473676,18.1477726 C21.4473676,19.5136091 20.3366275,20.6224689 18.9685909,20.6224689 L14.4300965,20.6224689 Z M12.7757483,20.6224689 L8.67161931,20.6224689 C8.77508727,21.6645888 9.654337,22.4784911 10.7236838,22.4784911 C11.7930306,22.4784911 12.6722804,21.6645888 12.7757483,20.6224689 Z M8.89004335,4.38221149 C6.08931583,5.1900254 4.12449378,7.76323091 4.12449378,10.7233742 L4.12449378,15.6723573 C4.12449378,16.5832624 3.38533677,17.3228739 2.47555701,17.3228739 C2.02018975,17.3228739 1.64979751,17.6933603 1.64979751,18.1477726 C1.64979751,18.6031102 2.02019367,18.9726714 2.47877671,18.9726714 L18.9685909,18.9726714 C19.4260947,18.9726714 19.7975701,18.6018248 19.7975701,18.1477726 C19.7975701,17.6937525 19.4259598,17.3228739 18.9718106,17.3228739 C18.0602273,17.3228739 17.3228739,16.5858785 17.3228739,15.6723573 L17.3228739,10.7233742 C17.3228739,7.76395249 15.357903,5.19014459 12.5572922,4.3822416 L11.9610319,4.2102361 L11.9610319,2.88518791 C11.9610319,2.20297511 11.407297,1.64979751 10.7236838,1.64979751 C10.0415141,1.64979751 9.48633568,2.20401865 9.48633568,2.88518791 L9.48633568,4.2102229 L8.89004335,4.38221149 Z"></path>
                        </g>
                    </g>
                </g>
            </g>
        </g>
    </g>
</svg>