<?xml version="1.0" encoding="UTF-8"?>
<svg width="40px" height="40px" viewBox="0 0 40 40" version="1.1" xmlns="http://www.w3.org/2000/svg" xmlns:xlink="http://www.w3.org/1999/xlink">
    <!-- Generator: Sketch 58 (84663) - https://sketch.com -->
    <title>My Bookings</title>
    <desc>Created with Sketch.</desc>
    <g id="My-Bookings" stroke="none" stroke-width="1" fill="none" fill-rule="evenodd">
        <g id="events">
            <g id="Group" transform="translate(1.000000, 1.000000)" fill="#1A1A1A" stroke="#1A1A1A">
                <path d="M25.9251942,-1.77635684e-15 C27.6723193,-1.77635684e-15 29.0912274,1.41142475 29.1004661,3.15852539 L29.1004661,3.15852539 L29.1004661,3.77464082 L30.1273252,3.77464082 C32.2804789,3.77713638 34.025305,5.52204194 34.0277026,7.67519576 L34.0277026,7.67519576 L34.0277026,13.1511558 C34.0894103,13.3336651 34.0894103,13.531399 34.0277026,13.7139083 L34.0277026,13.7139083 L34.027,17.978 L34,18 L32.251,15.377 L32.2518979,14.3203456 L1.77580466,14.3203456 L1.77580466,31.5989249 C1.7770769,32.771781 2.72752132,33.7222652 3.90037736,33.7235864 L3.90037736,33.7235864 L14.618,33.723 L15.733,35.499 L3.90037736,35.4993911 C1.81454324,35.4969736 0.111895926,33.8593958 0.00529322851,31.7995431 L-3.55271368e-15,31.5989249 L-3.55271368e-15,7.67510697 C0.00244645008,5.52198782 1.74725827,3.77713628 3.90037736,3.77464082 L3.90037736,3.77464082 L4.92768036,3.77464082 L4.92768036,3.15852539 C4.93691907,1.41142475 6.35582721,-1.77635684e-15 8.10295228,-1.77635684e-15 C9.85007734,-1.77635684e-15 11.2689855,1.41142475 11.2782242,3.15852539 L11.2782242,3.15852539 L11.2782242,3.77464082 L22.7499223,3.77464082 L22.7499223,3.15852539 C22.759161,1.41142475 24.1780692,-1.77635684e-15 25.9251942,-1.77635684e-15 Z M4.9709212,5.55044548 L3.90037736,5.55044548 C2.72738282,5.55176709 1.77688118,6.50246734 1.77580466,7.67546213 L1.77580466,7.67546213 L1.77580466,12.5442746 L32.2518979,12.5442746 L32.2518979,7.67510697 C32.2506257,6.50225087 31.3001812,5.55176673 30.1273252,5.55044548 L30.1273252,5.55044548 L29.0567814,5.55044548 C28.8016407,7.08128765 27.4771525,8.20329724 25.9251942,8.20329724 C24.3732359,8.20329724 23.0487478,7.08128765 22.7936071,5.55044548 L22.7936071,5.55044548 L11.2340954,5.55044548 C10.9789548,7.08128765 9.6544666,8.20329724 8.10250832,8.20329724 C6.55055004,8.20329724 5.22606187,7.08128765 4.9709212,5.55044548 L4.9709212,5.55044548 Z M25.9248835,1.75910253 C25.152334,1.75993436 24.5262527,2.38597598 24.5253718,3.15852539 L24.5253718,3.15852539 L24.5253718,5.02862528 C24.5314936,5.79718011 25.1562599,6.41698969 25.9248391,6.41698969 C26.6934183,6.41698969 27.3181845,5.79718011 27.3243063,5.02862528 L27.3243063,5.02862528 L27.3243063,3.15852539 C27.3233768,2.38603085 26.697378,1.7600321 25.9248835,1.75910253 Z M8.10250832,1.77016098 C7.33392911,1.77016098 6.70916287,2.38997056 6.70304107,3.15852539 L6.70304107,3.15852539 L6.70304107,5.02862528 C6.70916287,5.79718011 7.33392911,6.41698969 8.10250832,6.41698969 C8.87108753,6.41698969 9.49585378,5.79718011 9.50197558,5.02862528 L9.50197558,5.02862528 L9.50197558,3.15852539 C9.49585378,2.38997056 8.87108753,1.77016098 8.10250832,1.77016098 Z" id="Combined-Shape" stroke-width="0.5" fill-rule="nonzero"></path>
            </g>
            <g id="Group" transform="translate(14.000000, 18.000000)" fill="#000000" stroke="#000000">
                <path d="M1.88155867,13.6508123 C1.93249228,13.7387174 2.01809275,13.8040487 2.11675997,13.8303406 C2.21516051,13.8566324 2.32209443,13.842557 2.41036159,13.7918323 C2.7207633,13.6133663 3.05516515,13.529976 3.38503364,13.5297104 C4.053304,13.5305071 4.69624088,13.8725669 5.05197618,14.4863092 C5.23064383,14.7949066 5.31437763,15.126609 5.3146443,15.4548589 C5.31384429,16.1209194 4.96877572,16.7638749 4.34210559,17.1245249 C4.1570379,17.2310202 4.09357089,17.4668503 4.20050481,17.6511589 L6.03038159,20.8072445 C6.13731551,20.9915531 6.37411682,21.0547598 6.55918451,20.9482645 L6.55945118,20.9479989 L23.8054131,11.031718 C23.8288799,11.0181737 23.85048,11.0025048 23.8699468,10.9852425 C24.0046142,10.8662652 24.0416811,10.665491 23.9480806,10.5042873 L22.1190038,7.34952954 C22.0120699,7.16522093 21.7752686,7.10201423 21.5902009,7.20850955 L21.5902009,7.20850955 C21.2805992,7.3861788 20.9469973,7.46956914 20.6171288,7.46983472 C19.9485918,7.469038 19.3029882,7.12671265 18.9429863,6.5057998 C18.7653853,6.19932699 18.6824515,5.86948364 18.6821848,5.54282718 C18.6827181,4.87623554 19.0296534,4.23062428 19.6552569,3.8710366 L19.6552569,3.8710366 C19.8403245,3.76454128 19.9037916,3.52871125 19.7968576,3.34440265 L17.9696475,0.192831747 C17.8893804,0.0544675065 17.7360463,-0.0156441239 17.5861788,0.00294608108 C17.5360451,0.00905429131 17.4864449,0.0249887528 17.4400446,0.0518117629 L0.19381601,9.96782713 L0.193549342,9.96782713 C0.00848165328,10.0743224 -0.054985364,10.3101525 0.0519485601,10.4944611 L1.88155867,13.6508123 Z M17.9080472,5.54282718 C17.9077805,6.00067737 18.0261812,6.4664948 18.2725825,6.89141377 C18.7741853,7.75718617 19.683257,8.2415938 20.6171288,8.24079708 C20.9563307,8.24079708 21.2995326,8.17573136 21.6278011,8.04427205 L23.0843425,10.5566055 L18.0877815,13.4293233 L17.4272445,12.2902749 C17.3203106,12.1059663 17.0835093,12.0427596 16.8984416,12.1492549 C16.7133739,12.2557502 16.6499069,12.4915802 16.7568408,12.6758889 L17.4173778,13.8152028 L6.50745089,20.0880692 L5.05064284,17.5752046 C5.71917987,17.0536166 6.08958191,16.2648607 6.08904858,15.4551245 C6.08931524,14.9954153 5.97011459,14.5277388 5.72264655,14.1012264 C5.2242438,13.2415622 4.31837213,12.7582169 3.38530031,12.7590136 C3.04583177,12.7590136 2.70182987,12.8240793 2.37302805,12.9560698 L0.916220001,10.4429397 L11.8261469,4.16980775 L12.4850839,5.30620043 C12.5920178,5.49050903 12.8288191,5.55371573 13.0138868,5.44722041 C13.1989545,5.34072509 13.2624215,5.10489506 13.1554876,4.92058646 L12.4965506,3.78392821 L17.4925782,0.911210384 L18.9469863,3.41982577 C18.2784492,3.94221053 17.9075139,4.73229424 17.9080472,5.54282718 Z" id="Shape"></path>
                <path d="M15.2001577,8.00664468 C15.0817058,7.80905551 14.8193984,7.74129439 14.6143968,7.85546334 C14.4093952,7.9696323 14.3390921,8.22245532 14.457544,8.42004448 L15.3998423,9.99335532 C15.5182942,10.1909445 15.7806016,10.2587056 15.9856032,10.1445367 C16.1906048,10.0303677 16.2609079,9.77754468 16.142456,9.57995552 L15.2001577,8.00664468 Z" id="Path" fill-rule="nonzero"></path>
            </g>
        </g>
    </g>
</svg>