<?xml version="1.0" encoding="UTF-8"?>
<svg width="64px" height="64px" viewBox="0 0 64 64" version="1.1" xmlns="http://www.w3.org/2000/svg" xmlns:xlink="http://www.w3.org/1999/xlink">
    <!-- Generator: Sketch 58 (84663) - https://sketch.com -->
    <title>Payment_Razorpay </title>
    <desc>Created with Sketch.</desc>
    <g id="Payment_Razorpay-" stroke="none" stroke-width="1" fill="none" fill-rule="evenodd">
        <g id="tsim-logo2" transform="translate(0.000000, 5.000000)" fill-rule="nonzero">
            <rect id="Rectangle" fill="#AD5DA3" x="0" y="0" width="64" height="54.4" rx="5.33333333"></rect>
            <g id="tsim-logo" transform="translate(5.333333, 5.333333)" fill="#FFFFFF">
                <path d="M31.3248549,6.74853435 C38.5280658,9.57666955 43.1808831,16.6219342 42.9538745,24.3571176 C44.4152886,16.3409306 40.1487875,8.37727824 32.6654457,5.15321543 C25.1821039,1.92915261 16.4638007,4.29853621 11.6417451,10.8668515 C16.7979313,5.69816085 24.5289998,4.08058151 31.3248549,6.74853435 L31.3248549,6.74853435 Z" id="Path"></path>
                <path d="M33.3490444,2.19602648 C39.7057284,4.6939477 44.3576271,10.2506852 45.6985455,16.9476233 C47.0394638,23.6445613 44.8856512,30.5639966 39.9807703,35.3168049 C47.9175578,29.4966322 50.2894917,18.6833369 45.5175472,10.0754596 C40.7456027,1.46758243 30.318131,-2.25011288 21.1768253,1.3972882 C25.2183223,0.388499545 29.4740284,0.667758021 33.3490444,2.19602648 L33.3490444,2.19602648 Z" id="Path"></path>
                <path d="M41.8888605,2.5319099 C49.7005232,8.5678656 52.7379006,18.9469339 49.4127797,28.2420083 C46.0876589,37.5370827 37.1561487,43.6345286 27.2884428,43.3460554 C37.8252061,45.1647541 48.1439177,39.1442437 51.7454542,29.0764745 C55.3469909,19.0087051 51.1883735,7.80922933 41.8888605,2.5319099 Z" id="Path"></path>
                <path d="M2.70764405,17.3300795 L2.7814101,19.4104918 C3.96097739,18.0235503 5.55119877,17.3300795 7.55207429,17.3300795 C9.80221067,17.3300795 11.3328446,18.1918267 12.1439762,19.915321 C13.3013558,18.2363457 15.2338668,17.2620839 17.2719694,17.3300795 C20.8000693,17.3300795 22.5936807,19.1976762 22.6528038,22.9328695 L22.6528038,32.7133307 L19.9030237,32.7133307 L19.9030237,23.0961642 C19.9030237,21.9472312 19.6402843,21.0877942 19.1148057,20.5178533 C18.5896646,19.9481257 17.7078958,19.6633743 16.4694993,19.6635995 C15.5367447,19.6315525 14.6272256,19.9584815 13.9283291,20.5770297 C13.2548207,21.1870375 12.8631966,22.0068518 12.7534569,23.0364725 L12.7534569,32.7133307 L9.98946021,32.7133307 L9.98946021,23.1704456 C9.98946021,20.8323231 8.84524235,19.6633743 6.55680661,19.6635995 C4.75249722,19.6635995 3.51855524,20.4313753 2.85498067,21.966927 L2.85498067,32.7133307 L0.106426763,32.7133307 L0.106426763,17.3300795 L2.70764405,17.3300795 Z" id="Path"></path>
                <path d="M27.5215087,25.8067067 L27.6247706,23.6155831 C27.8049118,22.3397023 28.239458,21.3361038 28.9412573,20.6176534 C29.6443963,19.8838061 30.6224751,19.4775792 31.6386174,19.4973548 C32.749462,19.4942272 33.6316324,19.8436222 34.2851286,20.54554 C34.9379875,21.2476059 35.3049695,22.2390196 35.3860749,23.5197814 L35.3860749,23.7103363 C35.3860749,23.7103363 34.903978,23.7651766 30.7952002,23.7311635 C29.0611738,23.7167515 29.077665,25.8079329 29.077665,25.8079329 L38.0499338,25.8266809 L38.0466462,24.7233 C38.0391826,22.3707655 37.4734948,20.5650048 36.3495828,19.306018 C35.2255524,18.0468772 33.6530318,17.4204493 31.632021,17.4266412 C30.4165683,17.4243608 29.2252064,17.7656497 28.1953725,18.4112293 C27.1376215,19.0654178 26.2844339,20.0030168 25.7326421,21.1176134 C25.1322372,22.3355674 24.833844,23.6801561 24.8626789,25.037752 L24.8642428,25.5014598 C24.870498,27.6991941 25.5364361,29.4525431 26.862057,30.7615069 C28.1879124,32.0701746 29.9040674,32.7207825 32.010522,32.7134562 C34.6157199,32.7049962 36.5663293,31.7497635 37.8623502,29.8476325 C37.8623502,29.8476325 27.3420747,33.4035079 27.5215087,25.8067067 Z" id="Path"></path>
            </g>
        </g>
    </g>
</svg>